<svg width="33" height="33" viewBox="0 0 33 33" fill="none" xmlns="http://www.w3.org/2000/svg">
<g clip-path="url(#clip0_69_4843)">
<path d="M25.1911 25.9037C27.1505 27.3926 29.8375 27.1605 31.5734 25.2076C33.5443 22.9904 33.5443 19.4004 31.5734 17.1896C29.9807 15.3979 27.5917 15.0562 25.6953 16.1584C25.0193 16.5516 24.7557 17.4861 25.1052 18.2402C25.4547 18.9943 26.2854 19.2973 26.9557 18.9041C27.8208 18.4014 28.9036 18.5625 29.6255 19.3746C30.5193 20.3801 30.5193 22.0107 29.6255 23.0227C28.7318 24.0346 27.2823 24.0281 26.3828 23.0227L21.7021 17.7568C22.9854 16.8416 23.8333 15.2367 23.8333 13.4062C23.8333 11.2213 22.6245 9.35215 20.9172 8.60449C21.026 8.16621 21.0833 7.70215 21.0833 7.21875C21.0833 4.36992 19.0323 2.0625 16.5 2.0625C14.9359 2.0625 13.5495 2.94551 12.7245 4.29258C12.3922 3.00352 11.338 2.0625 10.0833 2.0625C8.5651 2.0625 7.33333 3.44824 7.33333 5.15625C7.33333 5.41406 7.36198 5.66543 7.41354 5.90391L25.1911 25.9037ZM27.5 4.125C27.5 3.57799 27.3068 3.05339 26.963 2.66659C26.6192 2.2798 26.1529 2.0625 25.6667 2.0625C25.1804 2.0625 24.7141 2.2798 24.3703 2.66659C24.0265 3.05339 23.8333 3.57799 23.8333 4.125C23.8333 4.67201 24.0265 5.19661 24.3703 5.58341C24.7141 5.9702 25.1804 6.1875 25.6667 6.1875C26.1529 6.1875 26.6192 5.9702 26.963 5.58341C27.3068 5.19661 27.5 4.67201 27.5 4.125ZM27.5 12.375C27.9862 12.375 28.4525 12.1577 28.7964 11.7709C29.1402 11.3841 29.3333 10.8595 29.3333 10.3125C29.3333 9.76549 29.1402 9.24089 28.7964 8.85409C28.4525 8.4673 27.9862 8.25 27.5 8.25C27.0138 8.25 26.5475 8.4673 26.2036 8.85409C25.8598 9.24089 25.6667 9.76549 25.6667 10.3125C25.6667 10.8595 25.8598 11.3841 26.2036 11.7709C26.5475 12.1577 27.0138 12.375 27.5 12.375ZM3.91302 5.60742C2.46927 3.9832 0 5.13691 0 7.43145V27.8438C0 30.6926 2.05104 33 4.58333 33H22.7276C24.7672 33 25.7927 30.2221 24.349 28.5979L3.91302 5.60742Z" fill="#4CB2FC"/>
</g>
<defs>
<clipPath id="clip0_69_4843">
<rect width="33" height="33" fill="white"/>
</clipPath>
</defs>
</svg>
