<svg width="33" height="33" viewBox="0 0 33 33" fill="none" xmlns="http://www.w3.org/2000/svg">
<path d="M12.4094 30.25C12.0885 30.25 11.808 30.1643 11.5679 29.9929C11.3277 29.8215 11.1613 29.5863 11.0688 29.2875L7.5625 17.875H2.75V15.125H8.59375C8.89167 15.125 9.16117 15.2112 9.40225 15.3835C9.64333 15.5558 9.80925 15.7905 9.9 16.0875L12.1688 23.4781L16.5344 3.85C16.6031 3.52917 16.7635 3.26562 17.0156 3.05937C17.2677 2.85312 17.5542 2.75 17.875 2.75C18.1958 2.75 18.4823 2.84763 18.7344 3.04288C18.9865 3.23813 19.1469 3.49571 19.2156 3.81563L22.2062 16.7406L24.1312 10.5875C24.2229 10.2896 24.3888 10.0549 24.629 9.8835C24.8692 9.71208 25.1387 9.62592 25.4375 9.625C25.7354 9.625 25.999 9.70521 26.2281 9.86563C26.4573 10.026 26.6292 10.2438 26.7438 10.5188L28.4625 15.125H30.25V17.875H27.5C27.2021 17.875 26.9385 17.7948 26.7094 17.6344C26.4802 17.474 26.3083 17.2563 26.1937 16.9813L25.5406 15.2281L23.3063 22.4125C23.2146 22.7104 23.0427 22.951 22.7906 23.1344C22.5385 23.3177 22.2521 23.3979 21.9312 23.375C21.6104 23.3521 21.3354 23.243 21.1063 23.0477C20.8771 22.8525 20.7281 22.6064 20.6594 22.3094L17.875 10.3469L13.7156 29.1844C13.6469 29.5052 13.4924 29.7573 13.2522 29.9406C13.0121 30.124 12.7311 30.2271 12.4094 30.25Z" fill="#E8232C"/>
</svg>
