<svg id="svg" xmlns="http://www.w3.org/2000/svg" xmlns:xlink="http://www.w3.org/1999/xlink" width="400" height="400" viewBox="0, 0, 400,400"><g id="svgg"><path id="path0" d="M161.389 2.736 C 35.692 22.742,-38.211 173.732,20.567 290.448 C 72.725 394.021,202.408 432.174,302.854 373.498 C 438.222 294.422,431.833 91.240,291.776 21.172 C 255.351 2.949,204.884 -4.187,161.389 2.736 M250.685 28.608 C 377.239 63.268,420.783 227.571,329.030 324.222 C 231.741 426.704,55.021 376.187,25.860 237.558 C -1.832 105.920,119.896 -7.213,250.685 28.608 M165.753 45.112 C 80.625 63.654,25.427 150.982,45.364 235.575 C 74.205 357.942,223.893 401.031,312.462 312.462 C 424.335 200.590,320.518 11.402,165.753 45.112 M231.364 67.201 C 336.627 94.619,372.307 219.754,296.781 296.628 C 222.100 372.642,94.555 336.383,67.201 231.364 C 42.454 136.354,136.354 42.454,231.364 67.201 M167.110 87.599 C 70.421 112.239,55.235 256.361,144.376 303.354 C 230.953 348.995,332.003 276.112,315.210 180.137 C 303.434 112.834,235.255 70.233,167.110 87.599 M241.900 115.949 C 267.025 127.667,288.231 154.305,292.275 179.228 L 293.868 189.041 269.537 189.083 C 240.606 189.133,241.294 188.769,230.728 209.589 C 225.318 220.251,221.854 224.583,220.872 221.918 C 219.446 218.048,206.699 171.464,200.068 145.890 C 194.732 125.311,186.015 128.739,160.009 161.641 L 138.356 189.036 122.385 189.039 L 106.414 189.041 108.207 180.137 C 120.026 121.450,185.891 89.827,241.900 115.949 M193.991 209.589 C 198.712 227.671,203.892 247.705,205.503 254.110 C 208.482 265.957,225.341 272.149,227.881 262.329 C 228.369 260.445,234.856 248.116,242.298 234.932 L 255.828 210.959 275.712 210.959 L 295.595 210.959 291.335 225.342 C 263.262 320.140,127.091 315.591,107.815 219.211 L 106.164 210.959 128.047 210.959 L 149.930 210.959 165.982 190.465 C 175.856 177.860,182.684 171.269,183.721 173.342 C 184.648 175.196,189.270 191.507,193.991 209.589 " stroke="none" fill="#d33b31" fill-rule="evenodd"></path></g></svg>