<svg width="24" height="24" viewBox="0 0 24 24" fill="none" xmlns="http://www.w3.org/2000/svg">
<path d="M20 7.72222H15.2M7.2 7.72222H4M20 16.2778H16.8M8.8 16.2778H4M10.4 10.4444C10.7677 10.4444 11.1318 10.374 11.4715 10.2372C11.8112 10.1004 12.1199 9.89991 12.3799 9.64712C12.6399 9.39434 12.8461 9.09425 12.9869 8.76397C13.1276 8.4337 13.2 8.07971 13.2 7.72222C13.2 7.36473 13.1276 7.01075 12.9869 6.68047C12.8461 6.3502 12.6399 6.0501 12.3799 5.79732C12.1199 5.54454 11.8112 5.34402 11.4715 5.20722C11.1318 5.07041 10.7677 5 10.4 5C9.65739 5 8.9452 5.2868 8.4201 5.79732C7.895 6.30784 7.6 7.00024 7.6 7.72222C7.6 8.4442 7.895 9.13661 8.4201 9.64712C8.9452 10.1576 9.65739 10.4444 10.4 10.4444ZM13.6 19C14.3426 19 15.0548 18.7132 15.5799 18.2027C16.105 17.6922 16.4 16.9998 16.4 16.2778C16.4 15.5558 16.105 14.8634 15.5799 14.3529C15.0548 13.8424 14.3426 13.5556 13.6 13.5556C12.8574 13.5556 12.1452 13.8424 11.6201 14.3529C11.095 14.8634 10.8 15.5558 10.8 16.2778C10.8 16.9998 11.095 17.6922 11.6201 18.2027C12.1452 18.7132 12.8574 19 13.6 19Z" stroke="#9A9A9A" stroke-width="1.5" stroke-miterlimit="10" stroke-linecap="round" stroke-linejoin="round"/>
</svg>
