<svg width="24" height="24" viewBox="0 0 24 24" fill="none" xmlns="http://www.w3.org/2000/svg">
<path d="M13.125 14.631V6.46947H10.125V14.6295C9.07275 15.1755 8.3445 16.2645 8.3445 17.532C8.35743 18.3937 8.70881 19.2158 9.32275 19.8207C9.93669 20.4255 10.7639 20.7646 11.6258 20.7647C12.4876 20.7648 13.3149 20.4259 13.929 19.8212C14.5431 19.2165 14.8946 18.3945 14.9078 17.5327C14.9078 16.2652 14.1803 15.1762 13.1258 14.6317L13.125 14.631ZM15.375 3.93597C15.375 1.86897 13.692 0.185974 11.625 0.185974C9.558 0.185974 7.875 1.86972 7.875 3.93597V13.4812C7.31313 13.9956 6.86456 14.6214 6.55788 15.3186C6.2512 16.0159 6.09314 16.7695 6.09375 17.5312C6.09375 20.5807 8.57625 23.064 11.6258 23.064C14.6753 23.064 17.157 20.5815 17.157 17.5312C17.157 15.9667 16.4985 14.5087 15.3758 13.4797V3.93747L15.375 3.93597ZM15.6563 17.5335C15.6549 18.602 15.2296 19.6263 14.4739 20.3817C13.7181 21.137 12.6935 21.5617 11.625 21.5625C10.5567 21.5611 9.5325 21.1361 8.77707 20.3807C8.02165 19.6252 7.59664 18.6011 7.59525 17.5327C7.59525 16.1865 8.26725 14.9505 9.37725 14.2042V3.93747C9.37725 2.69772 10.3845 1.68747 11.625 1.68747C12.8655 1.68747 13.875 2.69697 13.875 3.93747V14.205C14.4229 14.5701 14.8722 15.065 15.1829 15.6455C15.4937 16.226 15.6563 16.875 15.6563 17.5335ZM16.5638 6.46947L19.9388 8.41797V4.52247L16.5638 6.46947Z" fill="#FFFFFB"/>
</svg>
