<svg width="40" height="40" viewBox="0 0 40 40" fill="none" xmlns="http://www.w3.org/2000/svg">
<path d="M20.8333 38.3334C20.1388 38.3334 19.5488 38.0973 19.0633 37.625C18.5777 37.1528 18.3344 36.5695 18.3333 35.875C18.3333 35.5417 18.396 35.2223 18.5216 34.9167C18.6471 34.6112 18.8344 34.3473 19.0833 34.125L20.8333 32.5L22.5833 34.125C22.8333 34.3473 23.021 34.6112 23.1466 34.9167C23.2721 35.2223 23.3344 35.5417 23.3333 35.875C23.3333 36.5695 23.0905 37.1528 22.6049 37.625C22.1194 38.0973 21.5288 38.3334 20.8333 38.3334ZM15.0833 35.8334L13.3333 34.0834L18.2499 29.1667L19.9999 30.9167L15.0833 35.8334ZM25.8333 33.3334L23.3333 30.8334L25.8333 28.3334L28.3333 30.8334L25.8333 33.3334ZM10.8333 33.3334L8.33325 30.8334L10.8333 28.3334L13.3333 30.8334L10.8333 33.3334ZM12.4999 26.6667C9.97214 26.6667 7.8127 25.7712 6.02159 23.98C4.23047 22.1889 3.33436 20.0289 3.33325 17.5C3.33325 15.1945 4.09714 13.1806 5.62492 11.4584C7.1527 9.73615 9.04159 8.72227 11.2916 8.41671C12.1805 6.83338 13.396 5.59004 14.9383 4.68671C16.4805 3.78338 18.1677 3.33226 19.9999 3.33338C22.4999 3.33338 24.6738 4.13226 26.5216 5.73004C28.3694 7.32782 29.4871 9.3206 29.8749 11.7084C31.7916 11.875 33.4027 12.6667 34.7083 14.0834C36.0138 15.5 36.6666 17.1945 36.6666 19.1667C36.6666 21.25 35.9377 23.0212 34.4799 24.48C33.0221 25.9389 31.251 26.6678 29.1666 26.6667H12.4999Z" fill="white"/>
</svg>
